<?xml version="1.0" encoding="utf-8"?>
<!-- Generator: Adobe Illustrator 25.2.1, SVG Export Plug-In . SVG Version: 6.00 Build 0)  -->
<svg version="1.1" id="Camada_1" xmlns="http://www.w3.org/2000/svg" xmlns:xlink="http://www.w3.org/1999/xlink" x="0px" y="0px"
	 viewBox="0 0 202.1 47" style="enable-background:new 0 0 202.1 47;" xml:space="preserve">
<style type="text/css">
	.st0{fill:#16172F;}
	.st1{fill:#35B8C2;}
</style>
<g>
	<path class="st0" d="M57.1,31.9v-2.5c-1.9-0.5-4.3-1-7.4-1c-4.6,0-7.2,2.1-7.2,5.1v0.1c0,3.2,3,5,6.4,5
		C53.3,38.6,57.1,35.9,57.1,31.9 M40.2,33.7L40.2,33.7c0-4.6,3.9-7.2,9.6-7.2c3.1,0,5.2,0.4,7.3,0.9v-0.9c0-4.4-2.7-6.7-7.2-6.7
		c-2.7,0-4.9,0.7-6.9,1.8l-0.8-1.9c2.4-1.1,4.8-1.9,7.8-1.9c3,0,5.3,0.8,6.9,2.4c1.5,1.5,2.2,3.5,2.2,6.2v13.7h-2.1v-3.7
		c-1.5,2.1-4.2,4.2-8.4,4.2C44.6,40.6,40.2,38.3,40.2,33.7"/>
	<path class="st0" d="M63.9,29.2L63.9,29.2c0-6.2,4.9-11.6,11.2-11.6c4.1,0,6.7,1.9,8.8,4l-1.5,1.5c-1.9-1.9-4-3.6-7.3-3.6
		c-5,0-8.9,4.2-8.9,9.4v0.1c0,5.3,4,9.5,9,9.5c3.1,0,5.5-1.6,7.4-3.7l1.5,1.3c-2.2,2.5-4.9,4.3-9,4.3C68.8,40.6,63.9,35.4,63.9,29.2
		"/>
	<path class="st0" d="M104.7,28.1c-0.3-4.4-2.8-8.5-7.9-8.5c-4.3,0-7.7,3.7-8.1,8.5H104.7z M86.5,29.2L86.5,29.2
		c0-6.5,4.5-11.5,10.4-11.5c6.2,0,10.1,5,10.1,11.5c0,0.4,0,0.5,0,0.9H88.8c0.4,5.5,4.3,8.7,8.6,8.7c3.4,0,5.7-1.5,7.5-3.4l1.5,1.3
		c-2.2,2.4-4.9,4.1-9.1,4.1C91.5,40.6,86.5,36,86.5,29.2"/>
	<path class="st0" d="M112,18.2h2.1v6.2c1.7-3.9,5.4-6.8,9.7-6.6v2.3h-0.2c-5.1,0-9.5,3.8-9.5,11v9H112V18.2z"/>
	<path class="st0" d="M129.9,34.5V20.1h-3.2v-1.9h3.2v-7h2.1v7h7.7v1.9H132v14.2c0,3.1,1.9,4.3,4.4,4.3c1.1,0,2-0.2,3.2-0.8v2
		c-1.1,0.5-2.2,0.8-3.6,0.8C132.6,40.5,129.9,38.6,129.9,34.5"/>
	<path class="st0" d="M155.3,36.1c0.9,0,1.7-0.2,2.5-0.5c0.8-0.3,1.5-0.8,2.1-1.4c0.6-0.6,1.1-1.4,1.4-2.3c0.3-0.9,0.5-1.9,0.5-3
		v-0.1c0-1.1-0.2-2.1-0.5-3c-0.3-0.9-0.8-1.7-1.4-2.3c-0.6-0.6-1.3-1.1-2.1-1.5c-0.8-0.3-1.6-0.5-2.5-0.5c-0.9,0-1.7,0.2-2.5,0.5
		c-0.8,0.3-1.5,0.8-2.1,1.5c-0.6,0.6-1.1,1.4-1.4,2.3c-0.4,0.9-0.5,1.9-0.5,3v0.1c0,1.1,0.2,2.1,0.5,3c0.4,0.9,0.8,1.7,1.4,2.3
		c0.6,0.6,1.3,1.1,2.1,1.5C153.6,35.9,154.4,36.1,155.3,36.1 M143.5,17.4h5.3v3.8c0.8-1.2,1.9-2.2,3.1-3c1.2-0.8,2.8-1.2,4.6-1.2
		c1.3,0,2.6,0.3,3.9,0.8c1.3,0.5,2.4,1.3,3.4,2.3c1,1,1.8,2.2,2.4,3.7c0.6,1.5,0.9,3.1,0.9,5v0.1c0,1.9-0.3,3.6-0.9,5
		c-0.6,1.5-1.4,2.7-2.4,3.7c-1,1-2.1,1.8-3.4,2.3c-1.3,0.5-2.6,0.8-3.9,0.8c-1.9,0-3.4-0.4-4.6-1.2c-1.2-0.8-2.2-1.7-3-2.8V47h-5.3
		V17.4z"/>
	<path class="st0" d="M171.3,17.4h5.3v22.7h-5.3V17.4z M171.1,8.9h5.6v5h-5.6V8.9z"/>
	<polygon class="st0" points="188,28.6 180,17.4 185.6,17.4 190.9,24.9 196.2,17.4 201.7,17.4 193.7,28.4 202.1,40.1 196.4,40.1 
		190.8,32.1 185.2,40.1 179.7,40.1 	"/>
	<polygon class="st0" points="20.4,29.3 32.1,45.8 24.8,45.8 16,33.2 7.1,45.8 0,45.8 11.6,29.3 	"/>
	<polygon class="st1" points="11.7,27 0,10.5 7.3,10.5 16.1,23.1 32.6,0 39.8,0 20.5,27 	"/>
</g>
</svg>
